**ABCDEFGHIJKLMNOPQRSTUVWXYZabcdefghijklmnopqrstuvwxyz**************************
**PARASOLID !"#$%&'()*+,-./:;<=>?@[\]^_`{|}~0123456789**************************
**PART1;
MC=unknown;
MC_MODEL=unknown;
MC_ID=unknown;
OS=unknown;
OS_RELEASE=unknown;
FRU=sdl_parasolid_customer_support;
APPL=unknown;
SITE=unknown;
USER=unknown;
FORMAT=text;
GUISE=transmit;
KEY=C:\TPO v2\SharedFS\Outgoing\usr-12-4;
FILE=C:\TPO v2\SharedFS\Outgoing\usr-12-4.xmt_txt;
DATE=unknown;
**PART2;
SCH=SCH_1300151_13006;
USFLD_SIZE=0;
**PART3;
**END_OF_HEADER*****************************************************************
T51 : TRANSMIT FILE created by modeller version 130015117 SCH_1100000_110040 10
 1 9 0 0 0 0 0 0 0 1e3 1e-8 0 0 0 1 0 1 2 11 2 6 0 1 3 0 1 4 0 0 0 12 3 401 0 5
 0 0 0 0 1e3 1e-8 2 6 0 1 0 1 1 7 8 9 10 11 12 13 11 4 1 0 1 6 0 1 0 2 0 0 12 6
 675 0 14 0 0 0 0 1e3 1e-8 4 0 3 1 0 1 1 15 16 17 18 19 20 21 70 14 0 6 0 0 4 1
 20 4 22 22 1 T13 15 3 0 6 0 23 0 0 24 0 50 16 140 0 25 26 0 0 +1379973386538176
e-32 .0071755 -.2253742 612303176911189e-31 0 -1 -1 0 -612303176911189e-31 38 17
 543 0 27 28 0 0 +29 30 31 32 32 29 18 364 0 21 33 0 -.0047625 -.00635 -.2246122
 19 19 61 0 6 24 0 34 V16 20 547 35 ?36 0 37 28 38 38 6 18 21 362 0 39 0 40 18 ?
6 17 39 0 41 42 43 21 44 45 0 46 +18 40 217 0 47 21 48 33 ?6 17 47 0 49 50 51 40
 52 53 0 54 +18 48 265 0 55 40 56 57 ?6 29 33 218 0 40 57 18 .0047625 .00635 -.2
246122 29 57 323 0 48 58 33 .0047625 -.00635 -.2246122 29 58 324 0 56 59 57 .004
7625 -.00536715883871532 -.2253742 18 56 266 0 60 48 61 58 ?6 29 59 325 0 61 62
 58 .0047625 .00536715883871532 -.2253742 18 61 267 0 51 56 63 59 ?6 29 62 328 0
 63 64 59 .0047625 -.00635 -.2094992 18 63 262 0 65 61 66 62 ?6 29 64 329 0 66 6
7 62 .0047625 .00635 -.2094992 18 66 264 0 50 63 68 64 ?6 29 67 471 0 68 69 64 -
.0047625 .00635 -.2246122 18 68 413 0 70 66 71 67 ?6 29 69 472 0 71 72 67 -.0047
625 .00536715883871532 -.2253742 18 71 414 0 73 68 74 69 ?6 29 72 473 0 74 75 69
 -.0047625 -.00536715883871532 -.2253742 18 74 415 0 43 71 76 72 ?6 29 75 476 0
 76 77 72 -.0047625 .00635 -.2094992 18 76 410 0 78 74 79 75 ?6 29 77 477 0 79 8
0 75 -.0047625 -.00635 -.2094992 18 79 412 0 42 76 81 77 ?6 29 80 605 0 81 82 77
 .01036 -.004019708478235705 -.203284878295682 18 81 570 0 83 79 84 80 ?6 29 82
 606 0 84 85 80 .01036 -.004019708478235705 -.199863921704318 18 84 567 0 86 81
 87 82 ?6 29 85 607 0 87 88 82 .01036 .004019708478235705 -.199863921704318 18 8
7 568 0 89 84 90 85 ?6 29 88 608 0 90 0 85 .01036 .004019708478235705 -.20328487
8295682 18 90 566 0 36 87 0 88 ?6 17 36 0 91 92 92 90 83 20 0 93 +15 91 578 0 92
 94 0 17 92 0 91 36 36 81 93 95 0 0 -17 83 0 96 97 98 81 36 20 0 99 -17 93 0 100
 101 99 90 92 95 0 98 +15 100 574 0 101 102 0 17 101 0 100 103 93 87 98 37 0 104
 +17 99 0 100 93 103 81 97 27 0 92 +16 95 554 105 ?93 106 0 107 106 106 6 17 98
 0 96 83 89 90 101 37 0 0 -15 96 549 0 83 23 0 17 89 0 96 98 97 87 86 38 0 101 -
16 37 545 108 ?101 20 27 17 27 27 6 81 1 108 618 109 37 0 0 110 111 112 16 27 54
1 113 ?99 37 38 17 37 37 6 81 1 113 616 109 27 0 0 35 110 114 16 38 534 110 ?86
 27 115 28 20 20 6 81 1 110 617 109 38 0 0 113 108 116 17 86 0 117 104 104 84 89
 38 0 103 +16 115 120 118 ?119 38 120 121 120 120 6 38 28 536 0 38 122 17 0 +29
 123 124 125 125 31 122 494 0 126 127 28 0 +-.0047625 0 -.2182368 1 122460635382
2376e-31 612303176911189e-31 1224606353822376e-31 -1 749830360911069e-47 .003175
 51 29 135 0 23 128 129 130 -1379973386538176e-32 0 -.2253742 -612303176911189e-
31 0 1 .0111125 1 0 612303176911189e-31 52 123 599 0 94 0 30 131 -.01036 0 -.201
5744 1 0 1224606353822376e-31 .0043685 .707106781186548 .707106781186548 1224606
353822376e-31 0 -1 40 21 124 0 1 21 .000369637331341816 .3841398917952905 ??.010
2738535962856 -.00423504291974588 -.20093960570928 .01031248806983334 -.00414007
8025779875 -.202811611315862 .0105577702851909 -.003467151980392555 -.2045458779
92898 .0108835734441834 -.00224398871099345 -.2059214561588525 .0110563884060033
4 -.00111531684538301 -.206514963014442 .0111112776411116 .0001648193924693895 -
.2066915239639365 .01103790857807042 .001285391174763444 -.2064543599449855 .010
8746593249995 .00228679706471768 -.205889003594553 .01064073492615012 .003203500
660435235 -.2049438167028025 .01039188502470616 .003936544408905845 -.2035408705
64837 .01026106865572936 .00426592619397107 -.2017507241718485 .0103567380261554
 .004028105473741555 -.1998922379039445 .0106370789732998 .003215619250748355 -.
198221610589467 .01090668609604888 .0021288153166149 -.197144140447046 .01106790
371734686 .000994567018123733 -.19659637718487 .01110912757512716 -.000273753117
880316 -.196464099497275 .01102657396744076 -.00137924718254483 -.19673191643605
85 .01085606972475992 -.002373479804243345 -.1973281508050165 .0106174696787649
 -.003279785643987775 -.1983120999527415 .0103728080943352 -.00398654091764955 -
.1997568873784775 .0102738535962856 -.00423504291974588 -.20093960570928 41 1 12
5 H.0102738535962856 -.00423504291974588 -.20093960570928 14 94 589 132 ?133 102
 91 15 123 +133 133 133 102 34 51 30 598 0 102 123 134 135 -.0121125 0 -.2015744
 1 0 1224606353822376e-31 .0043685 1224606353822376e-31 0 -1 141 131 28 131 131
 123 14 102 587 136 ?94 137 138 15 30 +0 0 94 137 34 50 134 597 0 139 30 140 0 +
-.0042505 0 -.2015744 1 0 1224606353822376e-31 1224606353822376e-31 0 -1 141 135
 17 135 135 30 14 139 585 141 ?0 133 142 15 134 +0 0 0 133 34 51 140 520 0 137 1
34 143 0 +-.022225 0 -.2182368 1 0 612303176911189e-31 .003175 0 1 0 14 137 515
 144 ?102 145 146 15 140 -0 0 102 145 34 50 143 451 0 145 140 147 148 +-.0047625
 -583218776007907e-33 -.2253742 1 1224606353822376e-31 612303176911189e-31 -6123
03176911189e-31 0 1 14 145 440 149 ?137 150 151 15 143 -0 0 137 150 34 50 147 30
3 0 150 143 152 153 +.0047625 0 -.2253742 -1 0 -612303176911189e-31 -61230317691
1189e-31 0 1 141 148 154 155 155 143 38 154 457 0 45 156 157 0 +26 143 158 159 1
60 141 155 161 148 148 143 38 161 455 0 162 157 163 0 +26 143 164 165 166 16 162
 393 167 ?73 168 169 161 0 0 6 30 157 456 0 169 154 161 0 +-.0047625 .0071755 -.
2253742 1224606353822376e-31 -1 749830360911069e-47 30 163 454 0 168 161 170 0 -
-.0047625 .00635 -.2253742 -612303176911189e-31 0 1 52 26 139 0 171 172 16 173 +
1375307636330112e-32 0 -.2246122 -612303176911189e-31 0 1 .0079375 .707106781186
548 .707106781186547 1 0 612303176911189e-31 40 3 164 0 1 3 .000848948473960822
 .3248726271374525 ??-.0047625 .01161735681677856 -.2199940484574335 -.0047625 .
0052817652489715 -.225437847189709 -.0047625 .00163472688882252 -.22751445042812
8 41 1 165 L-.0047625 .01161735681677856 -.2199940484574335 41 1 166 L-.0047625
 .00163472688882252 -.227514450428128 14 171 123 174 ?175 25 176 15 26 +177 177
 175 25 34 51 172 138 0 175 178 26 0 +1379973386538176e-32 0 -.2253742 -61230317
6911189e-31 0 1 .0079375 1 0 612303176911189e-31 141 173 179 180 181 26 38 179 3
09 0 53 182 183 0 +26 147 184 185 186 141 180 161 187 173 26 141 181 188 173 187
 26 38 188 307 0 189 183 190 0 +26 147 191 192 193 141 187 154 181 180 26 16 189
 245 194 ?195 196 197 188 0 0 6 30 183 308 0 197 179 188 0 +.0047625 .0071755 -.
2253742 0 1 0 30 190 306 0 196 188 198 0 -.0047625 -.00635 -.2253742 -6123031769
11189e-31 0 1 40 3 191 0 1 3 .000478945013744755 .1752598108793285 ??.0047625 -.
01357704690653964 -.218161593489678 .0047625 -.00651899256463394 -.2244763691937
125 .0047625 -.00314892996796354 -.2268403071957575 41 1 192 L.0047625 -.0135770
4690653964 -.218161593489678 41 1 193 L.0047625 -.00314892996796354 -.2268403071
957575 16 196 244 199 ?200 201 189 190 0 0 6 31 198 201 0 201 190 202 0 +3636290
999754245e-33 0 -.0593871 -612303176911189e-31 0 1 1 0 612303176911189e-31 .0095
25 16 201 172 203 ?204 205 196 198 0 0 6 31 202 200 0 205 198 206 0 +10163442865
62752e-32 0 -.1659871 -612303176911189e-31 0 1 1 0 612303176911189e-31 .009525 1
6 205 174 207 ?208 209 201 202 0 0 6 31 206 198 0 209 202 210 0 +363629099975424
5e-33 0 -.0593871 -612303176911189e-31 0 1 1 0 612303176911189e-31 .003175 16 20
9 170 211 ?212 213 205 206 0 0 6 31 210 141 0 214 206 215 0 +-679644280307881e-3
3 0 .0110998 -612303176911189e-31 0 1 1 0 612303176911189e-31 .0056642 16 214 70
 216 ?217 218 213 210 0 0 6 31 215 142 0 218 210 219 0 +-637652528435312e-33 0 .
010414 -612303176911189e-31 0 1 1 0 612303176911189e-31 .00635 16 218 75 220 ?22
1 222 214 215 0 0 6 31 219 143 0 222 215 223 0 +2175337872185385e-48 0 -35527136
788005e-30 -612303176911189e-31 0 1 1 0 612303176911189e-31 .00635 16 222 80 224
 ?225 226 218 219 0 0 6 31 223 144 0 226 219 227 0 +0 0 0 -612303176911189e-31 0
 1 1 0 612303176911189e-31 .010556875 16 226 85 228 ?229 230 222 223 0 0 6 31 22
7 145 0 230 223 231 0 +118572265287581e-31 0 -.1936496 -612303176911189e-31 0 1
 1 0 612303176911189e-31 .010556875 16 230 90 232 ?233 234 226 227 0 0 6 31 231
 146 0 234 227 235 0 +118572265287581e-31 0 -.1936496 -612303176911189e-31 0 1 1
 0 612303176911189e-31 .0111125 16 234 95 236 ?237 238 230 231 0 0 6 31 235 147
 0 238 231 239 0 +12759660381501e-30 0 -.20838795 -612303176911189e-31 0 1 1 0 6
12303176911189e-31 .0111125 16 238 100 240 ?241 242 234 235 0 0 6 31 239 148 0 2
42 235 243 0 +1282770257203524e-32 0 -.2094992 -612303176911189e-31 0 1 1 0 6123
03176911189e-31 .01000125 16 242 105 244 ?245 246 238 239 0 0 6 31 243 149 0 247
 239 248 0 +1282770257203524e-32 0 -.2094992 -612303176911189e-31 0 1 1 0 612303
176911189e-31 .0079375 16 247 110 249 ?250 251 246 243 246 246 6 31 248 150 0 25
2 243 121 0 +1375307636330112e-32 0 -.2246122 -612303176911189e-31 0 1 1 0 61230
3176911189e-31 .0079375 16 252 115 253 ?254 120 251 248 251 251 6 31 121 151 0 1
15 248 127 0 +1379973386538176e-32 0 -.2253742 -612303176911189e-31 0 1 1 0 6123
03176911189e-31 .0071755 31 127 167 0 213 121 122 0 +-679644280307881e-33 0 .011
0998 612303176911189e-31 0 -1 -1 0 -612303176911189e-31 .003175 16 213 171 255 ?
256 214 209 127 0 0 6 81 1 255 656 109 213 0 0 257 258 259 17 256 0 260 256 256
 0 261 213 0 0 +15 260 165 0 256 262 263 17 261 0 264 261 261 0 256 213 0 0 -15
 264 177 0 261 265 0 14 265 181 258 ?266 262 267 15 268 -0 0 266 262 34 81 1 258
 657 109 265 0 0 255 211 269 14 266 178 270 ?271 265 272 15 273 -0 0 271 265 34
 14 262 73 257 ?265 274 260 15 275 -0 0 265 274 34 15 267 176 0 276 265 264 51 2
68 194 0 265 277 273 0 +-740874597999e-30 0 .0120998 -612303176911189e-31 0 1 .0
03175 1 0 612303176911189e-31 13 34 60 0 0 0 0 0 0 19 23 14 23 103 278 ?177 0 27
9 15 29 -0 0 177 0 34 81 1 278 612 109 23 0 0 0 240 280 14 177 379 111 ?281 23 2
82 15 26 +171 171 281 23 34 15 279 102 0 241 23 283 17 241 0 279 241 241 0 284 2
38 0 0 +15 283 156 0 285 23 96 17 285 0 283 285 285 0 237 234 0 0 -17 237 0 286
 237 237 0 285 234 0 0 +15 286 157 0 237 287 288 14 287 98 289 ?290 291 286 15 1
28 +0 0 290 291 34 15 288 97 0 292 287 0 17 292 0 288 292 292 0 233 230 0 0 -17
 233 0 293 233 233 0 292 230 0 0 +15 293 158 0 233 290 294 14 290 93 295 ?296 28
7 293 15 297 +0 0 296 287 34 15 294 92 0 298 290 0 17 298 0 294 298 298 0 229 22
6 0 0 -17 229 0 299 229 229 0 298 226 0 0 +15 299 159 0 229 296 300 14 296 88 30
1 ?302 290 299 15 303 +0 0 302 290 34 15 300 87 0 304 296 0 17 304 0 300 304 304
 0 225 222 0 0 -17 225 0 305 225 225 0 304 222 0 0 +15 305 160 0 225 302 306 14
 302 83 307 ?274 296 305 15 308 +0 0 274 296 34 15 306 82 0 309 302 0 17 309 0 3
06 309 309 0 221 218 0 0 -17 221 0 310 221 221 0 309 218 0 0 +15 310 161 0 221 2
74 311 14 274 78 312 ?262 302 310 15 313 +0 0 262 302 34 15 311 77 0 314 274 0 1
7 314 0 311 314 314 0 217 214 0 0 -17 217 0 263 217 217 0 314 214 0 0 +15 263 72
 0 217 262 0 81 1 312 653 109 274 0 0 220 216 315 52 313 130 0 274 275 308 0 +-6
79644280307881e-33 0 .0110998 612303176911189e-31 0 -1 .0056642 .707106781186544
 .707106781186552 -1 0 -612303176911189e-31 50 275 129 0 262 273 313 0 +-6796442
80307881e-33 .0056642 .0110998 612303176911189e-31 0 -1 -1 0 -612303176911189e-3
1 51 308 131 0 302 313 303 0 +1379973386538176e-32 0 -.2253742 -612303176911189e
-31 0 1 .00635 1 0 612303176911189e-31 50 303 132 0 296 308 297 0 +2175337872185
385e-48 .00635 -35527136788005e-30 -612303176911189e-31 0 1 1 0 612303176911189e
-31 51 297 133 0 290 303 128 0 +1379973386538176e-32 0 -.2253742 -61230317691118
9e-31 0 1 .010556875 1 0 612303176911189e-31 50 128 134 0 287 297 29 0 +11857226
5287581e-31 .010556875 -.1936496 -612303176911189e-31 0 1 1 0 612303176911189e-3
1 50 273 193 0 266 268 275 0 +3636290999754245e-33 .003175 -.0593871 -6123031769
11189e-31 0 1 1 0 612303176911189e-31 80 1 109 316 317 8017 0 0 0 0 0 0 0 0 TTTT
TTTTTTTTTF3 81 1 220 652 109 218 0 0 307 312 318 81 1 216 654 109 214 0 0 312 25
7 319 84 12 315 112:PI1#E40381 1 257 655 109 262 0 0 216 255 320 84 12 319 114:P
I1#E40584 12 320 115:PI1#E40681 1 307 651 109 302 0 0 224 220 321 84 12 318 111:
PI1#E40281 1 224 650 109 222 0 0 301 307 322 84 12 321 109:PI1#E40081 1 301 649
 109 296 0 0 228 224 323 84 12 322 108:PI1#E39981 1 228 648 109 226 0 0 295 301
 324 84 12 323 106:PI1#E39781 1 295 647 109 290 0 0 232 228 325 84 12 324 105:PI
1#E39681 1 232 646 109 230 0 0 289 295 326 84 12 325 103:PI1#E39481 1 289 645 10
9 287 0 0 327 232 328 84 12 326 102:PI1#E39381 1 327 644 109 291 0 0 329 289 330
 84 12 328 100:PI1#E39114 291 108 327 ?287 331 332 15 129 -0 0 287 331 34 81 1 3
29 643 109 333 0 0 334 327 335 84 11 330 97:PI1#E38816 333 255 329 ?336 337 168
 170 0 0 6 81 1 334 642 109 338 0 0 244 329 339 84 11 335 96:PI1#E38316 338 403
 334 ?78 340 341 342 0 0 6 81 1 244 641 109 242 0 0 343 334 344 84 11 339 94:PI1
#E37381 1 343 640 109 331 0 0 345 244 346 84 11 344 92:PI1#E36314 331 113 343 ?2
91 175 347 15 178 -0 0 291 175 34 81 1 345 639 109 246 0 0 199 343 348 84 11 346
 91:PI1#E36216 246 352 345 ?65 247 242 243 247 247 6 81 1 199 638 109 196 0 0 34
9 345 350 84 11 348 90:PI1#E35781 1 349 637 109 340 0 0 351 199 352 84 11 350 89
:PI1#E35216 340 396 349 ?42 45 338 156 0 0 6 81 1 351 636 109 175 0 0 353 349 35
4 84 11 352 87:PI1#E34214 175 118 351 ?331 171 355 15 172 +281 281 331 171 34 81
 1 353 635 109 53 0 0 167 351 356 84 11 354 86:PI1#E34116 53 247 353 ?47 197 337
 179 0 0 6 81 1 167 634 109 162 0 0 174 353 357 84 11 356 84:PI1#E33181 1 174 63
3 109 171 0 0 358 167 359 84 11 357 82:PI1#E32181 1 358 632 109 197 0 0 118 174
 360 84 11 359 81:PI1#E32016 197 246 358 ?51 189 53 183 0 0 6 81 1 118 631 109 1
15 0 0 361 358 362 84 11 360 79:PI1#E31081 1 361 630 109 169 0 0 363 118 364 84
 11 362 78:PI1#E30516 169 394 361 ?43 162 45 157 0 0 6 81 1 363 629 109 25 0 0 2
53 361 365 84 11 364 77:PI1#E30014 25 126 363 ?171 281 366 15 16 +0 0 171 281 34
 81 1 253 628 109 252 0 0 367 363 368 84 11 365 76:PI1#E29981 1 367 627 109 337
 0 0 249 253 369 84 11 368 75:PI1#E29416 337 248 367 ?50 53 333 182 0 0 6 81 1 2
49 626 109 247 0 0 370 367 371 84 11 369 74:PI1#E28981 1 370 625 109 168 0 0 372
 249 373 84 11 371 73:PI1#E28416 168 392 370 ?70 333 162 163 0 0 6 81 1 372 624
 109 281 0 0 374 370 375 84 11 373 72:PI1#E27914 281 367 372 ?25 177 376 15 172
 +175 175 25 177 34 81 1 374 623 109 251 0 0 194 372 377 84 11 375 71:PI1#E27816
 251 363 374 ?55 252 247 248 252 252 6 81 1 194 622 109 189 0 0 378 374 379 84 1
1 377 70:PI1#E27381 1 378 621 109 120 0 0 380 194 381 84 11 379 69:PI1#E26816 12
0 375 378 ?60 115 252 121 115 115 6 81 1 380 620 109 45 0 0 111 378 382 84 11 38
1 68:PI1#E26316 45 395 380 ?39 169 340 154 0 0 6 81 1 111 619 109 177 0 0 108 38
0 383 84 11 382 67:PI1#E25884 11 383 66:PI1#E25717 60 0 282 384 44 56 385 120 0
 195 +15 282 381 0 44 177 0 17 384 0 282 386 60 48 195 189 0 0 -17 44 0 282 60 3
86 74 39 45 0 385 -17 385 0 366 387 388 74 60 120 0 0 -17 195 0 49 51 200 56 384
 189 0 388 +15 49 293 0 200 150 0 17 51 0 49 47 195 61 388 197 0 52 +17 200 0 49
 195 336 48 389 196 0 384 +17 388 0 366 385 390 56 51 197 0 0 -15 366 384 0 387
 25 0 17 390 0 366 388 387 61 119 115 0 0 -17 387 0 366 390 385 71 43 169 0 119
 -17 119 0 176 391 52 71 390 115 0 0 +15 176 378 0 391 171 0 17 391 0 176 392 11
9 68 73 162 0 254 -17 52 0 176 119 392 61 47 53 0 390 -17 392 0 176 52 391 40 25
4 252 0 0 -17 254 0 376 393 54 68 392 252 0 0 +15 376 369 0 393 281 0 17 393 0 3
76 394 254 76 70 168 0 250 -17 54 0 376 254 394 40 50 337 0 392 -17 394 0 376 54
 393 66 250 247 0 0 -17 50 0 49 336 47 66 54 337 0 395 +17 336 0 49 200 50 63 39
5 333 0 389 +17 395 0 396 250 65 66 336 333 0 394 -15 396 112 0 250 331 0 17 250
 0 396 397 395 76 394 247 0 0 +17 65 0 396 395 397 63 398 246 0 336 +17 397 0 39
6 65 250 79 78 338 0 398 -17 398 0 355 46 389 79 65 246 0 0 -15 355 366 0 46 175
 0 17 46 0 355 55 398 21 42 340 0 386 -17 389 0 355 398 55 63 200 196 0 0 -17 55
 0 355 389 46 48 386 251 0 200 +17 386 0 282 44 384 21 55 251 0 0 -17 42 0 41 78
 39 79 46 340 0 397 +15 41 441 0 70 145 0 17 78 0 41 70 42 76 397 338 0 393 +17
 70 0 41 73 78 68 393 168 0 391 +17 73 0 41 43 70 71 391 162 0 387 +17 43 0 41 3
9 73 74 387 169 0 44 +14 150 292 399 ?145 400 401 15 147 -0 0 145 400 34 81 1 39
9 664 109 150 0 0 402 403 404 14 400 188 402 ?150 271 405 15 152 -0 0 150 271 34
 15 401 497 0 406 150 49 17 406 0 401 406 406 0 407 341 0 0 +17 407 0 408 407 40
7 0 406 341 0 0 -16 341 502 403 ?406 338 126 409 0 0 6 81 1 403 665 109 341 0 0
 399 149 410 16 126 501 411 ?412 341 413 122 0 0 6 31 409 523 0 341 414 342 0 +.
0047625 0 -.2182368 -1 0 -612303176911189e-31 -612303176911189e-31 0 1 .003175 3
1 414 601 0 413 107 409 0 +-.0042505 0 -.2015744 1 0 1224606353822376e-31 122460
6353822376e-31 0 -1 .0043685 30 342 467 0 338 409 156 0 +-.0047625 -583218776007
907e-33 -.2094992 -1224606353822376e-31 1 -749830360911069e-47 30 156 458 0 340
 342 154 0 +-.0047625 -.00635 -.2253742 -612303176911189e-31 0 1 16 413 552 415
 ?416 126 106 414 0 0 6 31 107 602 0 95 0 414 0 +.01036 0 -.2015744 1 0 12246063
53822376e-31 1224606353822376e-31 0 -1 .0043685 81 1 415 670 109 413 0 0 136 417
 418 17 416 0 142 416 416 0 419 413 0 0 +16 106 562 417 ?103 413 95 107 95 95 6
 81 1 417 671 109 106 0 0 415 105 420 17 103 0 100 99 101 84 104 106 0 97 +17 10
4 0 117 86 86 87 103 106 0 0 -17 97 0 96 89 83 84 99 27 0 0 -15 117 582 0 104 13
3 0 14 133 581 421 ?139 94 117 15 123 +94 94 139 94 34 81 1 421 674 109 133 0 0
 132 141 422 81 1 132 673 109 94 0 0 105 421 423 81 1 141 675 109 139 0 0 421 0
 424 84 12 422 157:PI1#E55684 12 424 160:PI1#E56381 1 105 672 109 95 0 0 417 132
 425 84 12 423 154:PI1#E54984 12 425 153:PI1#E54484 12 420 151:PI1#E53415 142 58
6 0 416 139 0 17 419 0 138 419 419 0 416 413 0 0 -15 138 573 0 419 102 100 81 1
 136 669 109 102 0 0 144 415 426 84 12 418 149:PI1#E52481 1 144 668 109 137 0 0
 411 136 427 84 12 426 148:PI1#E52381 1 411 667 109 126 0 0 149 144 428 84 12 42
7 145:PI1#E52081 1 149 666 109 145 0 0 403 411 429 84 12 428 138:PI1#E47184 12 4
29 137:PI1#E47017 412 0 151 412 412 0 430 126 0 0 +15 151 492 0 412 145 41 17 43
0 0 146 430 430 0 412 126 0 0 -15 146 506 0 430 137 408 15 408 507 0 407 137 0 8
4 12 410 130:PI1#E42181 1 402 663 109 400 0 0 207 399 431 14 271 186 432 ?400 26
6 433 15 277 +0 0 400 266 34 15 405 189 0 434 400 435 51 152 197 0 400 147 277 0
 +-740874597999e-30 0 .0120998 -612303176911189e-31 0 1 .009525 1 0 612303176911
189e-31 50 277 196 0 271 152 268 0 +1016344286562752e-32 -2180863492725305e-32 -
.1659871 -612303176911189e-31 0 1 1 0 612303176911189e-31 17 434 0 405 434 434 0
 208 205 0 0 -15 435 190 0 204 400 0 17 204 0 435 204 204 0 436 201 0 0 +17 436
 0 272 436 436 0 204 201 0 0 -15 272 179 0 436 266 437 15 437 180 0 212 266 0 17
 212 0 437 212 212 0 276 209 0 0 +17 276 0 267 276 276 0 212 209 0 0 -17 208 0 4
33 208 208 0 434 205 0 0 +15 433 187 0 208 271 0 81 1 432 661 109 271 0 0 203 20
7 438 81 1 203 660 109 201 0 0 270 432 439 81 1 207 662 109 205 0 0 432 402 440
 84 12 438 124:PI1#E41584 12 440 125:PI1#E41681 1 270 659 109 266 0 0 211 203 44
1 84 12 439 122:PI1#E41381 1 211 658 109 209 0 0 258 270 442 84 12 441 121:PI1#E
41284 12 442 119:PI1#E41084 12 431 126:PI1#E41784 12 404 129:PI1#E42030 182 310
 0 337 170 179 0 +.0047625 .00635 -.2253742 -612303176911189e-31 0 1 30 170 319
 0 333 163 182 0 +.0047625 0 -.2094992 0 -1 0 15 347 490 0 443 331 396 50 178 13
7 0 331 129 172 0 +1282770257203524e-32 .0079375 -.2094992 -612303176911189e-31
 0 1 1 0 612303176911189e-31 52 129 136 0 291 29 178 0 -1282770257203524e-32 0 -
.2094992 -612303176911189e-31 0 1 .01000125 .707106781186548 .707106781186547 1
 0 612303176911189e-31 17 443 0 347 443 443 0 245 242 0 0 -17 245 0 444 245 245
 0 443 242 0 0 +15 444 107 0 245 291 0 15 332 155 0 284 291 444 17 284 0 332 284
 284 0 241 238 0 0 -79 13 317 SDL/TYSA_NAME81 1 240 613 109 238 0 0 278 236 445
 84 11 280 59:PI1#E22681 1 236 614 109 234 0 0 240 35 446 84 11 445 60:PI1#E2278
1 1 35 615 109 20 0 0 236 113 447 84 11 446 61:PI1#E23284 11 447 62:PI1#E23784 1
2 269 118:PI1#E40984 12 259 116:PI1#E40740 4 184 0 1 4 .000651434237642184 .3016
121598157315 ??.0047625 .00163472688882252 -.227514450428128 .0047625 .004763585
35198214 -.2258137404057315 .0047625 .0052817652489715 -.225437847189709 .004762
5 .01161735681677856 -.2199940484574335 41 1 185 L.0047625 .00163472688882252 -.
227514450428128 41 1 186 L.0047625 .01161735681677856 -.2199940484574335 40 3 15
8 0 1 3 .000478945013744752 .175259810879328 ??-.0047625 -.00314892996796354 -.2
268403071957575 -.0047625 -.00651899256463392 -.2244763691937125 -.0047625 -.013
57704690653964 -.218161593489678 41 1 159 L-.0047625 -.00314892996796354 -.22684
03071957575 41 1 160 L-.0047625 -.01357704690653964 -.218161593489678 141 153 17
9 448 448 147 141 448 188 153 153 147 141 130 28 449 449 29 141 449 17 130 130 2
9 84 11 116 64:PI1#E24784 11 114 63:PI1#E24284 11 112 65:PI1#E25219 24 1 0 6 0 1
9 15 S40 21 31 0 1 21 .000276922290453785 .3636034197156845 ??.0111125 0 -.20594
29 .01102570543052834 .001386173152682642 -.205717142598905 .01080050452031044 .
00261471955604302 -.205073976244811 .01051068456130458 .00360737665107954 -.2040
38264027751 .0102759667427592 .004229912972119775 -.20266601737724 .010224122204
609 .00435373189289622 -.2012154977085915 .0103541524078263 .004034747100563415
 -.1998997035843785 .01060475722127824 .003320659652500845 -.1987359124234455 .0
108931493634305 .002197032816321585 -.197798577036194 .01108476912371404 .000784
569769973244 -.197276930683525 .0110937414057 -.00064541294800877 -.197253840501
909 .01094122842239204 -.001943496040397525 -.197662033019391 .01067946215266882
 -.00307192844638583 -.198468430285034 .01039434846750802 -.003930035138012605 -
.199666884321431 .01022829744305718 -.004343913864978235 -.201111577589512 .0102
6104396293508 -.004265985588432505 -.202515229001087 .01045018309886638 -.003779
064626355 -.2037658522125365 .01073045573026892 -.00288876722335654 -.2048514133
016605 .01099477590822316 -.00161324485988818 -.205634108520577 .011109413277331
2 -.00026190243117852 -.205935042081912 .0111125 -665628629312023e-33 -.2059429
 41 1 32 H.0111125 0 -.2059429 74 20 22 1 0 141 0 0 0 0 0 0 0 0 0 0 0 0 0 0 0 0
 0 0 0 70 5 0 3 0 0 4 1 20 4 450 450 1 T13 7 3 0 3 0 451 0 0 452 0 50 8 110 0 45
3 454 0 0 +-1651675573654395e-33 0 .0269748 -612303176911189e-31 0 1 1 0 6123031
76911189e-31 30 9 261 0 12 455 0 0 -.001702889576572715 .0026797 .0269748 -61230
3176911189e-31 0 1 29 10 252 0 13 456 0 -.001702889576572715 .0026797 .01912366
 19 11 49 0 3 452 0 457 V16 12 259 458 ?459 0 460 9 0 0 3 18 13 250 0 461 0 462
 10 ?3 17 461 0 463 464 464 13 465 466 0 467 -18 462 130 0 468 13 469 456 ?3 17
 468 0 470 471 472 462 473 474 0 475 +18 469 184 0 471 462 476 477 ?3 29 456 132
 0 462 477 10 .001702889576572715 -.0026797 .0127 29 477 228 0 469 478 456 .0017
02889576572715 -.0026797 .01912366 29 478 229 0 476 479 477 -.001702889576572715
 -.0026797 .01912366 18 476 174 0 480 469 481 478 ?3 29 479 231 0 481 482 478 -7
7762503467721e-32 -.0026797 .0127 18 481 186 0 483 476 484 479 ?3 29 482 232 0 4
84 485 479 -.001702889576572715 -.0026797 .0127 18 484 176 0 486 481 487 482 ?3
 29 485 349 0 487 488 482 .001702889576572715 .0026797 .01912366 18 487 303 0 46
4 484 489 485 ?3 29 488 351 0 489 490 485 .001702889576572715 .0026797 .0127 18
 489 295 0 459 487 491 488 ?3 29 490 352 0 491 492 488 -77762503467721e-32 .0026
797 .0127 18 491 307 0 493 489 494 490 ?3 29 492 353 0 494 0 490 -.0017028895765
72715 .0026797 .0127 18 494 304 0 495 491 0 492 ?3 17 495 0 496 467 493 494 497
 498 0 499 -15 496 319 0 459 500 0 17 467 0 496 465 495 13 499 460 0 501 +17 493
 0 496 495 459 491 502 503 0 497 -17 497 0 504 483 505 491 495 498 0 506 +16 498
 277 507 ?497 466 503 508 503 503 3 17 499 0 509 486 501 494 467 460 0 505 -15 5
09 260 0 510 511 512 17 486 0 509 513 499 484 505 514 0 515 +17 501 0 509 499 51
0 13 464 516 0 0 -16 460 257 517 ?467 12 516 455 0 0 3 17 505 0 504 497 518 494
 486 514 0 0 -15 504 267 0 497 519 0 17 518 0 504 505 483 484 472 520 0 0 -16 51
4 248 521 ?486 522 523 524 522 522 3 81 1 521 386 109 514 0 0 525 526 527 16 522
 58 528 ?529 530 514 524 514 514 3 16 523 53 531 ?532 514 533 534 0 0 3 31 524 1
13 0 522 534 535 0 +-77762503467721e-32 0 .0127 -612303176911189e-31 0 1 1 0 612
303176911189e-31 .003175 31 534 112 0 523 536 524 0 +-162134819730198e-32 0 .026
4795 -612303176911189e-31 0 1 1 0 612303176911189e-31 .003175 31 535 114 0 537 5
24 538 0 +-77762503467721e-32 0 .0127 -612303176911189e-31 0 1 1 0 6123031769111
89e-31 .0026797 16 537 63 539 ?540 541 530 535 530 530 3 31 538 115 0 541 535 54
2 0 +-747297658324799e-33 0 .0122047 -612303176911189e-31 0 1 1 0 61230317691118
9e-31 .003175 16 541 68 543 ?544 545 537 538 0 0 3 31 542 116 0 545 538 546 0 +9
85729127717192e-32 0 -.1609871 -612303176911189e-31 0 1 1 0 612303176911189e-31
 .003175 16 545 73 547 ?548 549 541 542 0 0 3 31 546 117 0 549 542 550 0 +985729
127717192e-32 0 -.1609871 -612303176911189e-31 0 1 1 0 612303176911189e-31 .0095
25 16 549 78 551 ?552 553 545 546 0 0 3 31 550 118 0 553 546 554 0 +101634428656
2752e-32 0 -.1659871 -612303176911189e-31 0 1 1 0 612303176911189e-31 .009525 16
 553 83 555 ?556 557 549 550 0 0 3 30 554 136 0 557 550 558 0 +.0017028895765727
15 -.0026797 .0269748 -612303176911189e-31 0 1 16 557 134 559 ?471 560 553 554 0
 0 3 31 558 140 0 560 554 561 0 --1170947777216942e-33 0 .01912366 -612303176911
189e-31 0 1 1 0 612303176911189e-31 .003175 16 560 138 562 ?480 563 557 558 0 0
 3 30 561 143 0 563 558 564 0 --.00170288957657272 -.0026797 .0269748 -612303176
911189e-31 0 1 16 563 141 565 ?515 516 560 561 0 0 3 31 564 256 0 516 561 455 0
 --1170947777216942e-33 0 .01912366 -612303176911189e-31 0 1 1 0 612303176911189
e-31 .003175 16 516 254 566 ?464 460 563 564 0 0 3 30 455 258 0 460 564 9 0 +-.0
0170288957657272 .0026797 .0269748 -612303176911189e-31 0 1 81 1 566 389 109 516
 0 0 458 517 567 17 464 0 463 461 461 487 501 516 0 465 +15 463 321 0 464 568 0
 17 465 0 496 459 467 487 461 466 0 510 +17 459 0 496 493 465 489 510 12 0 502 +
16 466 280 569 ?465 474 498 570 0 0 3 17 510 0 509 501 529 487 459 12 0 0 -17 52
9 0 509 510 475 489 571 522 0 0 +17 475 0 509 529 572 462 471 557 0 571 -17 571
 0 573 473 502 462 529 522 0 0 -15 573 271 0 502 451 0 17 473 0 573 540 571 481
 468 474 0 574 -17 502 0 573 571 540 489 493 503 0 529 +17 540 0 573 502 473 491
 574 537 0 0 +16 503 290 575 ?502 498 0 508 498 498 3 81 1 575 367 109 503 0 0 5
76 528 577 30 508 344 0 503 0 570 0 +-.00635 .0026797 .0127 1 0 612303176911189e
-31 30 570 341 0 466 508 578 0 +-.00635 .0026797 .01912366 1 0 612303176911189e-
31 30 578 222 0 474 570 579 0 +-.00635 -.0026797 .0127 1 0 612303176911189e-31 1
6 474 173 580 ?468 520 466 578 520 520 3 30 579 221 0 581 578 536 0 +-.00635 -.0
026797 .01912366 1 0 612303176911189e-31 16 581 157 582 ?583 533 520 579 0 0 3 3
1 536 111 0 533 579 534 0 +-1651675573654395e-33 0 .0269748 -612303176911189e-31
 0 1 1 0 612303176911189e-31 .0026797 16 533 51 584 ?585 523 581 536 0 0 3 81 1
 584 372 109 533 0 0 586 587 588 17 585 0 589 585 585 0 590 533 0 0 +15 589 127
 0 585 453 0 17 590 0 591 590 590 0 585 533 0 0 -15 591 55 0 590 592 0 14 592 56
 593 ?594 511 595 7 596 +0 0 594 511 457 81 1 593 395 109 592 0 0 531 597 598 14
 594 199 597 ?599 592 600 7 601 -0 0 599 592 457 14 511 61 526 ?592 519 509 7 60
2 +0 0 592 519 457 15 595 126 0 532 592 591 52 596 102 0 592 601 602 0 +-1651675
573654395e-33 0 .0269748 612303176911189e-31 0 -1 .0026797 .707106781186548 .707
106781186547 -1 0 -612303176911189e-31 13 457 48 0 0 0 0 0 0 11 451 14 451 269 5
76 ?453 0 573 7 603 +519 519 453 0 457 81 1 576 366 109 451 0 0 0 575 604 14 453
 99 586 ?605 451 589 7 8 +0 0 605 451 457 50 603 104 0 519 602 606 0 +-777625034
67721e-32 .003175 .0127 612303176911189e-31 0 -1 -1 0 -612303176911189e-31 14 51
9 66 607 ?511 608 504 7 603 +451 451 511 608 457 81 1 607 383 109 519 0 0 609 50
7 610 14 608 71 611 ?519 612 613 7 606 +0 0 519 612 457 81 1 611 381 109 608 0 0
 543 609 614 14 612 76 615 ?608 616 617 7 618 -0 0 608 616 457 15 613 123 0 544
 608 619 52 606 105 0 608 603 618 0 +-77762503467721e-32 0 .0127 612303176911189
e-31 0 -1 .0026797 .707106781186549 .707106781186546 -1 0 -612303176911189e-31 5
1 618 106 0 612 606 620 0 --1651675573654395e-33 0 .0269748 -612303176911189e-31
 0 1 .003175 1 0 612303176911189e-31 50 620 107 0 616 618 621 0 +985729127717192
e-32 .009525 -.1609871 612303176911189e-31 0 -1 -1 0 -612303176911189e-31 14 616
 81 622 ?612 623 624 7 620 -0 0 612 623 457 51 621 108 0 623 620 454 0 --1651675
573654395e-33 0 .0269748 -612303176911189e-31 0 1 .009525 1 0 612303176911189e-3
1 14 623 86 625 ?616 605 626 7 621 -0 0 616 605 457 50 454 109 0 605 621 8 0 +10
16344286562752e-32 0 -.1659871 -612303176911189e-31 0 1 1 0 612303176911189e-31
 14 605 91 587 ?623 453 627 7 454 -0 0 623 453 457 81 1 587 373 109 605 0 0 584
 555 628 15 627 119 0 629 605 0 17 629 0 627 629 629 0 556 553 0 0 -17 556 0 630
 556 556 0 629 553 0 0 +15 630 85 0 556 623 0 81 1 555 374 109 553 0 0 587 625 6
31 84 9 628 8:PI1#E2381 1 625 375 109 623 0 0 555 551 632 84 9 631 9:PI1#E2481 1
 551 376 109 549 0 0 625 622 633 84 10 632 10:PI1#E2581 1 622 377 109 616 0 0 55
1 547 634 84 10 633 11:PI1#E2681 1 547 378 109 545 0 0 622 615 635 84 10 634 13:
PI1#E2881 1 615 379 109 612 0 0 547 543 636 84 10 635 14:PI1#E2981 1 543 380 109
 541 0 0 615 611 637 84 10 636 16:PI1#E3184 10 637 17:PI1#E3215 626 120 0 638 62
3 630 17 638 0 626 638 638 0 552 549 0 0 -17 552 0 639 552 552 0 638 549 0 0 +15
 639 80 0 552 616 0 15 624 121 0 640 616 639 17 640 0 624 640 640 0 548 545 0 0
 -17 548 0 641 548 548 0 640 545 0 0 +15 641 75 0 548 612 0 17 544 0 613 544 544
 0 642 541 0 0 +15 619 70 0 574 608 0 17 574 0 619 506 506 481 540 537 0 0 -17 5
06 0 619 574 574 491 483 530 0 540 -17 483 0 504 518 497 481 506 530 0 472 +16 5
30 264 609 ?483 537 522 535 537 537 3 81 1 609 382 109 530 0 0 611 607 643 84 10
 643 22:PI1#E4117 472 0 470 468 515 481 518 520 0 473 +15 470 202 0 515 599 0 17
 515 0 470 472 644 484 513 563 0 518 +16 520 163 525 ?472 581 474 578 474 474 3
 81 1 525 385 109 520 0 0 507 521 645 81 1 507 384 109 498 0 0 607 525 646 84 10
 645 26:PI1#E5584 10 646 24:PI1#E4517 644 0 470 515 471 476 583 581 0 513 -17 51
3 0 509 572 486 476 515 563 0 0 -17 572 0 509 475 513 469 480 560 0 0 -17 480 0
 600 583 583 476 572 560 0 644 +15 600 200 0 480 594 0 17 583 0 600 480 480 469
 644 581 0 572 +17 471 0 470 644 468 469 475 557 0 583 +14 599 201 647 ?500 594
 470 7 648 -0 0 500 594 457 81 1 647 398 109 599 0 0 582 649 650 14 500 318 649
 ?568 599 496 7 651 -0 0 568 599 457 50 648 212 0 599 651 601 0 +-.00635 -.00267
97 .01591183 0 1 0 1 0 612303176911189e-31 50 651 331 0 500 652 648 0 +-.00635 .
0026797 .01591183 0 -1 0 -1 0 -612303176911189e-31 50 601 211 0 594 648 596 0 +-
.00635 -.00401955 .01912366 -612303176911189e-31 0 1 1 0 612303176911189e-31 50
 652 332 0 568 0 651 0 +-.00635 .00401955 .01912366 -612303176911189e-31 0 1 1 0
 612303176911189e-31 14 568 320 653 ?0 500 463 7 652 -0 0 0 500 457 81 1 653 401
 109 568 0 0 569 0 654 81 1 569 400 109 466 0 0 649 653 655 84 11 654 56:PI1#E21
981 1 649 399 109 500 0 0 647 569 656 84 11 655 55:PI1#E21384 11 656 50:PI1#E188
81 1 582 397 109 581 0 0 597 647 657 84 11 650 44:PI1#E15781 1 597 396 109 594 0
 0 593 582 658 84 11 657 43:PI1#E15484 11 658 41:PI1#E15017 642 0 617 642 642 0
 544 541 0 0 -15 617 122 0 642 612 641 84 10 614 19:PI1#E3484 10 610 23:PI1#E445
1 602 103 0 511 596 603 0 +-1651675573654395e-33 0 .0269748 -612303176911189e-31
 0 1 .003175 1 0 612303176911189e-31 81 1 586 371 109 453 0 0 539 584 659 81 1 5
39 370 109 537 0 0 580 586 660 84 9 659 6:PI1#E2181 1 580 369 109 474 0 0 528 53
9 661 84 9 660 5:PI1#E1681 1 528 368 109 522 0 0 575 580 662 84 9 661 4:PI1#E118
4 8 662 3:PI1#E684 8 604 1:PI1#E017 532 0 595 532 532 0 663 523 0 0 +17 663 0 51
2 663 663 0 532 523 0 0 -15 512 60 0 663 511 0 81 1 526 387 109 511 0 0 521 458
 664 81 1 458 388 109 12 0 0 526 566 665 84 10 664 28:PI1#E6584 10 665 29:PI1#E6
681 1 531 394 109 523 0 0 559 593 666 84 11 598 38:PI1#E14781 1 559 393 109 557
 0 0 562 531 667 84 11 666 37:PI1#E13881 1 562 392 109 560 0 0 565 559 668 84 11
 667 35:PI1#E12081 1 565 391 109 563 0 0 517 562 669 84 11 668 34:PI1#E11181 1 5
17 390 109 460 0 0 566 565 670 84 11 669 33:PI1#E10284 10 670 31:PI1#E8484 9 588
 7:PI1#E2284 8 577 2:PI1#E184 10 567 30:PI1#E7584 10 527 27:PI1#E6019 452 1 0 3
 0 11 7 S74 20 450 1 0 653 0 0 0 0 0 0 0 0 0 0 0 0 0 0 0 0 0 0 0 1 0 
