**ABCDEFGHIJKLMNOPQRSTUVWXYZabcdefghijklmnopqrstuvwxyz**************************
**PARASOLID !"#$%&'()*+,-./:;<=>?@[\]^_`{|}~0123456789**************************
**PART1;
FORMAT=text;
GUISE=transmit;
KEY=unicode filename;
FILE=unicode filename;
DATE=unknown;
**PART2;
SCH=SCH_3000167_30000;
USFLD_SIZE=0;
**PART3;
**END_OF_HEADER*****************************************************************
T51 : TRANSMIT FILE created by modeller version 300016717 SCH_1300000_130060 74
 2 1 2 0 2 3 12 2 289 4 5 0 0 0 0 1e3 1e-8 0 0 3 1 0 1 1 6 7 8 9 10 11 12 12 3 1
29 13 14 0 0 0 0 1e3 1e-8 0 2 0 1 0 1 1 15 16 17 18 19 20 21 81 1 13 129 22 3 0
 0 0 0 23 70 14 0 3 0 0 4 1 20 4 24 24 1 T13 15 4 0 3 0 25 0 0 26 0 50 16 90 0 2
7 28 0 0 +-974286405947076e-33 -.0026797 .01591183 0 -1 0 -1 0 -612303176911189e
-31 31 17 128 0 29 30 0 0 +-77762503467721e-32 0 .0127 612303176911189e-31 0 -1
 0 1 0 .0026797 29 18 106 0 31 32 0 -.001702889576572715 -.0026797 .01912366 19
 19 2 0 3 26 0 33 V16 20 10 0 ?34 0 35 36 0 0 3 18 21 8 0 37 0 38 39 ?3 17 37 0
 40 34 34 21 41 42 0 43 -18 38 9 0 41 21 44 45 ?3 29 39 96 0 21 46 47 .001702889
576572715 .0026797 .01912366 29 46 95 0 48 49 39 -.001702889576572715 -.0026797
 .0127 29 47 97 0 50 39 51 -.001702889576572715 .0026797 .0127 18 50 18 0 52 53
 54 47 ?3 29 51 98 0 55 47 56 -1651675573654395e-33 .0026797 .0269748 18 55 48 0
 57 58 59 51 ?3 29 56 99 0 53 51 60 -77762503467721e-32 .0026797 .0127 18 53 16
 0 61 44 50 56 ?3 29 60 100 0 59 56 62 -747297658324798e-33 .003175 .0122047 18
 59 58 0 63 55 64 60 ?3 29 62 101 0 64 60 65 1403624821352724e-32 .003175 -.2292
369 18 64 63 0 66 59 67 62 ?3 29 65 102 0 68 62 69 1434239980198284e-32 .009525
 -.2342369 18 68 73 0 70 67 0 65 ?3 29 69 103 0 54 65 71 .001702889576572715 -.0
026797 .0127 18 54 23 0 72 50 73 69 ?3 29 71 104 0 58 69 32 .001702889576572715
 -.0026797 .01912366 18 58 37 0 74 31 55 71 ?3 29 32 105 0 73 71 18 -77762503467
721e-32 -.0026797 .0127 18 73 25 0 75 54 76 32 ?3 17 75 0 77 78 78 73 61 79 0 80
 +18 76 30 0 81 73 48 82 ?3 17 81 0 83 81 81 76 84 85 0 84 -18 48 33 0 86 76 31
 46 ?3 29 82 92 0 76 87 45 -162134819730198e-32 .003175 .0264795 29 87 91 0 44 0
 82 .001702889576572715 .0026797 .0127 29 45 93 0 38 82 49 -.001702889576572715
 .0026797 .01912366 29 49 94 0 67 45 46 1403624821352724e-32 .009525 -.2292369 1
8 67 68 0 88 64 68 49 ?3 17 88 0 89 88 88 67 90 91 0 90 -15 89 66 0 88 92 93 17
 90 0 94 90 90 67 88 91 0 0 +16 91 67 0 ?90 95 96 97 0 0 3 16 95 62 0 ?98 99 91
 100 0 0 3 16 96 72 0 ?101 91 0 102 0 0 3 31 97 109 0 91 103 104 0 +140362482135
2724e-32 0 -.2292369 612303176911189e-31 0 -1 0 1 0 .009525 31 103 108 0 105 106
 97 0 +-77762503467721e-32 0 .0127 612303176911189e-31 0 -1 0 1 0 .003175 31 104
 110 0 107 97 100 0 +-1170947777216942e-33 0 .01912366 -612303176911189e-31 0 1
 0 1 0 .003175 16 107 36 0 ?108 109 110 104 0 0 3 31 100 111 0 95 104 36 0 +1403
624821352724e-32 0 -.2292369 612303176911189e-31 0 -1 0 1 0 .003175 30 36 112 0
 20 100 111 0 +-1170947777216942e-33 .0026797 .01912366 -1 0 -612303176911189e-3
1 30 111 113 0 112 36 113 0 +.001702889576572715 .0026797 .01591183 -61230317691
1189e-31 0 1 16 112 13 0 ?114 85 42 111 0 0 3 30 113 114 0 115 111 116 0 +-77762
503467721e-32 .0026797 .0127 1 0 612303176911189e-31 16 115 17 0 ?117 118 119 11
3 0 0 3 31 116 115 0 99 113 120 0 +-747297658324798e-33 0 .0122047 6123031769111
89e-31 0 -1 0 1 0 .003175 16 99 57 0 ?121 79 95 116 0 0 3 30 120 116 0 122 116 1
23 0 +-.001702889576572715 .0026797 .01591183 612303176911189e-31 0 -1 16 122 19
 0 ?124 42 109 120 0 0 3 30 123 117 0 35 120 125 0 +-77762503467721e-32 .0026797
 .0127 1 0 612303176911189e-31 16 35 15 0 ?126 20 127 123 0 0 3 31 125 118 0 85
 123 128 0 +-1621348197301985e-33 0 .0264795 612303176911189e-31 0 -1 0 1 0 .003
175 16 85 29 0 ?84 129 112 125 0 0 3 30 128 119 0 129 125 130 0 +-77762503467721
e-32 -.0026797 .0127 -1 0 -612303176911189e-31 16 129 24 0 ?131 127 85 128 0 0 3
 31 130 120 0 127 128 102 0 +-77762503467721e-32 0 .0127 612303176911189e-31 0 -
1 0 1 0 .003175 16 127 22 0 ?132 35 129 130 0 0 3 31 102 121 0 96 130 133 0 +143
4239980198284e-32 0 -.2342369 612303176911189e-31 0 -1 0 1 0 .009525 30 133 122
 0 134 102 135 0 +-1170947777216942e-33 -.0026797 .01912366 -1 0 -61230317691118
9e-31 16 134 41 0 ?136 110 118 133 0 0 3 30 135 123 0 119 133 137 0 +-7776250346
7721e-32 -.0026797 .0127 -1 0 -612303176911189e-31 16 119 44 0 ?138 115 105 135
 0 0 3 30 137 124 0 110 135 139 0 +.001702889576572715 -.0026797 .01591183 61230
3176911189e-31 0 -1 16 110 38 0 ?140 107 134 137 0 0 3 31 139 125 0 42 137 141 0
 +-1170947777216942e-33 0 .01912366 -612303176911189e-31 0 1 0 1 0 .003175 16 42
 7 0 ?41 112 122 139 0 0 3 31 141 126 0 79 139 30 0 +-77762503467721e-32 0 .0127
 612303176911189e-31 0 -1 0 1 0 .0026797 16 79 26 0 ?75 29 99 141 0 0 3 30 30 12
7 0 109 141 17 0 +-.001702889576572715 -.0026797 .01591183 -612303176911189e-31
 0 1 16 109 34 0 ?142 122 107 30 0 0 3 17 142 0 143 108 86 31 144 109 0 136 +15
 143 31 0 114 145 0 17 108 0 143 140 142 58 146 107 0 147 +17 86 0 143 142 124 4
8 148 105 0 144 -18 31 35 0 146 48 58 18 ?3 17 144 0 149 80 136 48 142 109 0 138
 -17 136 0 149 144 74 31 147 134 0 0 +15 149 43 0 74 27 0 17 74 0 149 136 72 58
 140 110 0 108 -17 147 0 150 146 146 58 136 134 0 0 -15 150 40 0 146 151 0 17 14
6 0 150 147 147 31 108 107 0 142 -14 151 39 0 ?27 145 150 15 152 +0 0 27 145 33
 14 27 42 0 ?153 151 149 15 16 +0 0 153 151 33 14 145 27 0 ?151 154 155 15 156 +
0 0 151 154 33 50 152 81 0 151 157 158 0 +-1170947777216942e-33 -.00401955 .0191
2366 612303176911189e-31 0 -1 -1 0 -612303176911189e-31 13 33 3 0 0 0 0 0 0 19 2
5 14 25 5 0 ?159 0 40 15 28 +0 0 159 0 33 14 159 11 0 ?154 25 160 15 161 +0 0 15
4 25 33 15 40 6 0 37 25 0 50 28 89 0 25 162 16 0 +-1170947777216942e-33 .0040195
5 .01912366 612303176911189e-31 0 -1 -1 0 -612303176911189e-31 50 162 88 0 92 16
3 28 0 +1403624821352724e-32 .00635 -.2292369 -612303176911189e-31 0 1 0 -1 0 14
 92 65 0 ?164 165 89 15 162 +0 0 164 165 33 50 163 87 0 154 156 162 0 +-77762503
467721e-32 .00292735 .0127 612303176911189e-31 0 -1 0 1 0 14 154 20 0 ?145 159 1
66 15 163 +0 0 145 159 33 51 156 86 0 145 161 163 0 +-1199486615989594e-33 0 .01
958975 -612303176911189e-31 0 1 .003175 0 1 0 50 161 85 0 159 167 156 0 +-974286
405947076e-33 .0026797 .01591183 0 1 0 1 0 612303176911189e-31 50 167 84 0 168 1
69 161 0 +1434239980198284e-32 .0047625 -.2342369 612303176911189e-31 0 -1 0 1 0
 14 168 75 0 ?0 164 170 15 167 +0 0 0 164 33 51 169 83 0 164 158 167 0 +14189324
00775504e-32 0 -.2317369 -612303176911189e-31 0 1 .009525 0 1 0 14 164 70 0 ?168
 92 171 15 169 +0 0 168 92 33 50 158 82 0 153 152 169 0 +-1651675573654395e-33 .
00133985 .0269748 -612303176911189e-31 612303176911189e-31 1 -3749151804555345e-
48 -1 612303176911189e-31 14 153 45 0 ?172 27 173 15 158 +0 0 172 27 33 14 172 4
9 0 ?174 153 83 15 175 +0 0 174 153 33 15 173 46 0 57 153 0 17 57 0 173 57 57 55
 176 118 0 176 -17 176 0 177 176 176 55 57 118 0 0 +16 118 47 0 ?176 134 115 106
 0 0 3 31 106 107 0 118 0 103 0 +-1651675573654395e-33 0 .0269748 61230317691118
9e-31 0 -1 0 1 0 .0026797 15 177 51 0 176 172 0 14 174 52 0 ?178 172 179 15 180
 +0 0 178 172 33 15 83 50 0 81 172 177 52 175 78 0 172 180 181 0 +-1636511885478
185e-33 0 .02672715 612303176911189e-31 0 -1 .00292735 .707106781186548 .7071067
81186548 0 1 0 50 180 77 0 174 0 175 0 +-77762503467721e-32 .00292735 .0127 6123
03176911189e-31 0 -1 0 1 0 52 181 79 0 178 175 157 0 +-762461346501005e-33 0 .01
245235 612303176911189e-31 0 -1 .00292735 .707106781186547 .707106781186548 0 1
 0 14 178 55 0 ?165 174 182 15 181 +0 0 165 174 33 51 157 80 0 165 181 152 0 +66
4447527760122e-32 0 -.1085161 -612303176911189e-31 0 1 .003175 0 1 0 14 165 60 0
 ?92 178 183 15 157 +0 0 92 178 33 15 183 61 0 66 165 184 17 66 0 183 66 66 64 9
8 95 0 98 -15 184 64 0 121 165 0 17 121 0 184 121 121 59 63 99 0 0 +17 63 0 182
 63 63 59 121 99 0 121 -15 182 56 0 63 178 77 15 77 59 0 78 178 0 17 78 0 77 75
 75 53 185 29 0 0 +17 185 0 179 138 117 73 78 29 0 0 -16 29 54 0 ?78 105 79 17 0
 0 3 16 105 32 0 ?148 119 29 103 0 0 3 17 148 0 179 117 138 50 86 105 0 0 +15 17
9 53 0 117 174 0 17 117 0 179 185 148 53 52 115 0 186 +17 138 0 179 148 185 48 8
0 119 0 0 +17 80 0 149 72 144 73 138 119 0 131 -17 72 0 149 74 80 54 131 129 0 1
32 -17 131 0 166 61 132 73 72 129 0 185 +15 166 21 0 126 154 0 17 61 0 166 126 1
31 53 75 79 0 117 -17 132 0 166 131 126 54 187 127 0 140 +17 126 0 166 132 61 44
 186 35 0 187 +17 187 0 143 114 140 44 132 127 0 0 -17 140 0 143 187 108 54 74 1
10 0 0 +17 114 0 143 41 187 21 188 112 0 0 +18 44 14 0 188 38 53 87 ?3 17 188 0
 160 186 43 44 114 112 0 126 -15 160 12 0 188 159 0 17 186 0 160 52 188 53 126 3
5 0 78 -17 43 0 160 188 189 21 34 20 0 114 -17 189 0 160 43 52 38 124 122 0 0 -1
7 34 0 40 37 37 38 43 20 0 189 +17 52 0 160 189 186 50 117 115 0 124 -17 124 0 1
43 86 41 50 189 122 0 148 +17 41 0 143 124 114 38 37 42 0 34 +17 98 0 93 98 98 6
4 66 95 0 0 +15 93 69 0 98 92 0 15 171 71 0 70 164 94 17 70 0 171 70 70 68 101 9
6 0 101 -15 94 74 0 90 164 0 17 101 0 170 101 101 68 70 96 0 0 +15 170 76 0 101
 168 0 15 155 28 0 84 145 143 17 84 0 155 84 84 76 81 85 0 0 +19 26 1 0 3 0 19 1
5 S74 20 24 1 0 13 0 0 0 0 0 0 0 0 0 0 0 0 0 0 0 0 0 0 0 80 1 22 190 191 8017 0
 0 0 0 0 0 0 0 0 TTTTTTTTTTTTTF3 84 10 23 usr-12-6_279 13 191 SDL/TYSA_NAME81 1
 4 245 22 2 0 0 0 0 192 70 5 0 2 0 0 4 1 20 4 193 193 1 T13 6 4 0 2 0 194 0 0 19
5 0 50 7 170 0 196 197 0 0 +1434239980198284e-32 .0047625 -.2342369 612303176911
189e-31 0 -1 0 1 0 137 8 288 0 2 198 0 199 +200 201 0 ?29 9 203 0 202 203 0 .004
7625 .00635 -.2951988 19 10 2 0 2 195 0 204 V16 11 12 0 ?205 0 206 207 0 0 2 18
 12 8 0 208 0 209 210 5e-7 2 17 208 0 211 212 205 12 213 214 215 216 -18 209 11
 0 212 12 217 203 5e-7 2 29 210 188 0 12 218 219 .0111125 -940681370688659e-33 -
.282153 29 218 187 0 220 221 210 -.0047625 -388812517338605e-33 -.3007614 29 219
 189 0 222 210 223 -679644280307882e-33 .0056642 .0110998 18 222 100 0 224 225 2
26 219 ?2 29 223 190 0 227 219 228 .0047625 -.00536715883871532 -.3110738 18 227
 57 0 229 230 231 223 ?2 29 228 191 0 232 223 233 .0111125 31356045689622e-32 -.
292395 18 232 17 0 234 235 236 228 5e-7 2 29 233 192 0 237 228 238 -.0047625 .00
536715883871532 -.3110738 18 237 48 0 239 240 241 233 ?2 29 238 193 0 236 233 24
2 -.0042505 .0043685 -.287274 18 236 27 0 243 232 244 238 ?2 29 242 194 0 245 23
8 246 -3480540595496615e-48 .00635 56843418860808e-30 18 245 109 0 247 226 248 2
42 ?2 29 246 195 0 231 242 249 .0047625 .00635 -.3103118 18 231 62 0 250 227 202
 246 ?2 29 249 196 0 251 246 252 .0047625 -.00635 -.2951988 18 251 73 0 253 202
 254 249 ?2 29 252 197 0 244 249 255 .0047625 388812517338605e-33 -.3007614 18 2
44 33 0 256 236 220 252 ?2 29 255 198 0 254 252 257 .0047625 -.00635 -.3103118 1
8 254 75 0 258 251 259 255 ?2 29 257 199 0 260 255 261 470474779740073e-32 .0031
75 -.0768369 18 260 83 0 262 259 263 257 ?2 29 261 200 0 217 257 264 .01036 .004
019708478235695 -.285563521704318 18 217 9 0 213 209 265 261 5e-7 2 29 264 201 0
 265 261 203 .01036 .004019708478235695 -.288984478295682 18 265 16 0 266 217 23
5 264 5e-7 2 29 203 202 0 209 264 9 .01036 -.004019708478235695 -.28556352170431
8 17 266 0 267 268 269 265 234 270 271 272 -18 235 19 0 273 265 232 274 5e-7 2 1
7 273 0 275 276 234 235 269 277 278 268 +29 274 171 0 235 0 279 .01036 -.0040197
08478235695 -.288984478295682 29 279 172 0 240 274 280 -.0047625 .00635 -.310311
8 18 240 46 0 281 282 237 279 ?2 29 280 173 0 283 279 284 -.0047625 -.00635 -.31
03118 18 283 42 0 285 241 230 280 ?2 29 284 174 0 225 280 286 -1068456797646486e
-33 -.003175 .0110998 18 225 94 0 287 263 222 284 ?2 29 286 175 0 288 284 289 -.
0047625 -.00879452075513498 -.2951988 18 288 135 0 290 291 0 286 ?2 29 289 176 0
 241 286 292 -.0047625 -.00536715883871532 -.3110738 18 241 50 0 293 237 283 289
 ?2 29 292 177 0 259 289 294 470474779740073e-32 .009525 -.0768369 18 259 80 0 2
95 254 260 292 ?2 29 294 178 0 248 292 296 0 .010556875 0 18 248 114 0 297 245 2
98 294 ?2 29 296 179 0 282 294 299 -.0047625 .00635 -.2951988 18 282 44 0 300 30
1 240 296 ?2 29 299 180 0 263 296 302 1434239980198284e-32 .009525 -.2342369 18
 263 87 0 303 260 225 299 ?2 29 302 181 0 226 299 304 -637652528435315e-33 .0063
5 .010414 18 226 104 0 305 222 245 302 ?2 29 304 182 0 291 302 306 1800707411550
28e-31 .0111125 -.29408755 18 291 130 0 307 308 288 304 ?2 29 306 183 0 230 304
 309 .0047625 .00536715883871532 -.3110738 18 230 55 0 310 283 227 306 ?2 29 309
 184 0 308 306 311 171046402627599e-31 .0111125 -.2793492 18 308 124 0 312 298 2
91 309 ?2 29 311 185 0 301 309 221 -.0047625 -.00635 -.2951988 18 301 41 0 313 2
20 282 311 ?2 29 221 186 0 298 311 218 171046402627599e-31 .010556875 -.2793492
 18 298 119 0 314 248 308 221 ?2 17 314 0 315 314 314 298 316 317 0 316 -15 315
 117 0 314 318 319 17 316 0 320 316 316 298 314 317 0 0 +16 317 118 0 ?316 321 3
22 323 0 0 2 16 321 113 0 ?324 325 317 326 0 0 2 16 322 10 0 5e-7 216 317 214 0
 0 0 2 31 323 218 0 317 327 328 0 +171046402627599e-31 0 -.2793492 6123031769111
89e-31 0 -1 0 1 0 .010556875 134 327 217 0 329 330 323 0 +331 332 31 328 219 0 3
33 323 334 0 +1807511630603705e-32 0 -.2951988 612303176911189e-31 0 -1 0 1 0 .0
079375 16 333 139 0 ?335 336 329 328 0 0 2 31 334 220 0 337 328 338 0 +190004900
9730295e-32 0 -.3103118 612303176911189e-31 0 -1 0 1 0 .0079375 16 337 143 0 ?33
9 340 0 334 0 0 2 31 338 223 0 341 334 342 0 +1807511630603705e-32 0 -.2951988 6
12303176911189e-31 0 -1 0 1 0 .0079375 16 341 66 0 ?343 344 345 338 0 0 2 31 342
 226 0 346 338 347 0 +1904714759938355e-32 0 -.3110738 612303176911189e-31 0 -1
 0 1 0 .0071755 16 346 54 0 ?348 349 350 342 0 0 2 30 347 227 0 336 342 351 0 +.
0047625 -.00635 -.3027553 -612303176911189e-31 0 1 16 336 74 0 ?253 352 333 347
 0 0 2 134 351 228 0 340 347 353 0 +354 355 16 340 76 0 ?258 329 337 351 0 0 2 3
1 353 229 0 356 351 357 0 +-679644280307882e-33 0 .0110998 612303176911189e-31 0
 -1 0 1 0 .0056642 136 354 2 3 4 2 5 FFT1 358 359 360 135 355 2 0 45 12 358 .004
7625 -.00536715883871528 -.3110738 1 .00477260300440001 -.0058461775386757 -.311
3839193324445 1.00212136575328 .0047625 -.00635 -.3103118 1 127 2 359 3 3 128 2
 360 0 1.243673016147534 16 356 99 0 ?361 362 363 353 0 0 2 30 357 230 0 344 353
 364 0 +-.0047625 .00635 -.3027553 -612303176911189e-31 0 1 16 344 45 0 ?365 366
 341 357 0 0 2 31 364 231 0 367 357 326 0 +470474779740073e-32 0 -.0768369 61230
3176911189e-31 0 -1 0 1 0 .009525 16 367 79 0 ?368 369 370 364 0 0 2 31 326 232
 0 321 364 371 0 +0 0 0 612303176911189e-31 0 -1 0 1 0 .010556875 31 371 234 0 3
25 326 372 0 +-3480540595496615e-48 0 56843418860808e-30 612303176911189e-31 0 -
1 0 1 0 .00635 16 325 108 0 ?373 363 321 371 0 0 2 30 372 235 0 345 371 374 0 +.
0047625 .00635 -.3027553 612303176911189e-31 0 -1 16 345 68 0 ?375 341 369 372 0
 0 2 30 374 236 0 350 372 376 0 +.0047625 .001793875 -.3110738 378952315550377e-
47 -1 -618896536617745e-31 16 350 56 0 ?377 346 378 374 0 0 2 31 376 237 0 370 3
74 379 0 +1434239980198284e-32 0 -.2342369 612303176911189e-31 0 -1 0 1 0 .00952
5 16 370 86 0 ?380 367 381 376 0 0 2 31 379 239 0 363 376 382 0 +-63765252843531
5e-33 0 .010414 612303176911189e-31 0 -1 0 1 0 .00635 16 363 103 0 ?383 356 325
 379 0 0 2 30 382 240 0 349 379 384 0 +-.0047625 .001793875 -.3110738 -122460635
3822376e-31 1 618896536617745e-31 16 349 49 0 ?385 386 346 382 0 0 2 134 384 241
 0 366 382 387 0 +388 389 16 366 63 0 ?390 391 344 384 0 0 2 30 387 242 0 352 38
4 392 0 +-.0047625 -.00635 -.3027553 612303176911189e-31 0 -1 136 388 2 3 4 2 5
 FFT1 393 394 395 135 389 2 0 45 12 393 .0047625 .00635 -.3103118 1 .00477260300
440001 .0058461775386757 -.3113839193324445 1.00212136575328 .0047625 .005367158
83871528 -.3110738 1 127 2 394 3 3 128 2 395 0 1.243673016147534 16 352 40 0 ?39
6 397 336 387 0 0 2 134 392 243 0 398 387 399 0 +400 401 16 398 47 0 ?402 378 39
1 392 0 0 2 133 399 246 0 216 392 403 0 +403 .0103600029781895 -.004019700802535
555 -.285563524346082 .0111125 -2041265716027675e-33 -.282153 0 1 136 400 2 3 4
 2 5 FFT1 404 405 406 135 401 2 0 45 12 404 -.0047625 .00536715883871528 -.31107
38 1 -.00477260300439972 .00584617753867538 -.311383919332428 1.002121365753226
 -.0047625 .00635 -.3103118 1 127 2 405 3 3 128 2 406 0 1.243673016147534 17 216
 0 275 213 276 12 212 322 399 0 +137 403 247 0 2 399 407 408 +409 410 0 ?133 407
 248 0 212 403 411 0 +411 .0111125 -823529964924863e-33 -.282153 .01035999868297
93 -.00401970715032727 -.285563521947291 0 1 141 408 399 408 408 403 51 409 151
 0 412 413 414 415 +1755585718913135e-32 0 -.286718375 -612303176911189e-31 0 1
 .0111125 0 1 0 134 410 0 0 0 0 0 0 +416 417 136 416 2 13 2 7 5 FFF1 418 419 420
 135 417 2 0 45 26 418 4.34226839300603 .00115485065391796 4.362538529166115 .00
185684224163265 4.39818196672792 .00246966017980099 4.43355138923783 .0030777669
74751465 4.48036161388246 .003535051422863535 4.50508726086012 .0037765938191718
3 4.53217733849969 .00396612352128417 4.55993036221339 .004160291378134055 4.589
453401988 .00429358115038514 4.62944344618469 .004474127053651905 4.670981907063
06 .00453499336541829 4.69171597658141 .00456537499999993 4.71238898038469 .0045
6537499999993 127 7 419 3 2 2 2 2 2 3 128 7 420 0 .25 .5 .625 .75 .9166666666666
67 1 14 412 126 0 ?421 422 275 6 409 +0 0 421 422 204 51 413 150 0 423 424 409 0
 +1853780320167e-29 0 -.3027553 -612303176911189e-31 0 1 .0079375 0 1 0 50 414 1
52 0 425 409 426 0 +.0047625 0 -.3110738 1 0 612303176911189e-31 612303176911189
e-31 0 -1 141 415 403 427 428 409 141 427 429 430 415 409 141 428 431 415 432 40
9 137 431 258 0 2 433 215 434 +409 435 0 ?141 432 436 428 437 409 137 436 265 0
 2 438 439 440 +409 441 0 ?141 437 442 432 430 409 137 442 274 0 2 443 271 444 +
409 445 0 ?141 430 446 437 427 409 137 446 281 0 2 278 447 448 +409 449 0 ?133 2
78 280 0 273 450 446 0 +446 .0111125 -2041265716027675e-33 -.292395 .01036000297
81895 -.004019700802535525 -.288984475653918 0 1 133 447 282 0 269 446 451 0 +45
1 .0103599986829793 -.004019707150327265 -.288984478052709 .0111125 -94068137068
866e-32 -.292395 0 1 141 448 278 448 448 446 134 449 0 0 0 0 0 0 +452 453 136 45
2 2 13 2 7 5 FFF1 454 455 456 135 453 2 0 45 26 454 4.71238898038469 -.005676625
 4.6917201852749 -.005676625 4.67098190706306 -.0056462433654183 4.6294516747192
3 -.00558540146088435 4.589453401988 -.00540483115038509 4.55993807429516 -.0052
7158559946352 4.5321773384997 -.00507737352128412 4.50509432666191 -.00488790275
036771 4.48036161388246 -.00464630142286354 4.433557132262595 -.0041890921796503
05 4.398181966727925 -.00358091017980111 4.36253988892401 -.00296813933251508 4.
34226839300603 -.00226610065391797 127 7 455 3 2 2 2 2 2 3 128 7 456 0 .08333333
33333333 .25 .375 .5 .75 1 17 269 0 267 266 268 232 273 277 447 0 -137 451 283 0
 2 447 457 458 +459 460 0 ?133 457 285 0 276 451 429 0 +429 .010360000483116 -.0
04019707233099985 -.2889844776859465 .010360000483116 -.004019707233099975 -.285
563522314053 0 1 141 458 447 458 458 451 52 459 159 0 461 462 463 464 +.01073625
 0 -.287274 1 0 1224606353822376e-31 .00474475 .707106781186548 .707106781186548
 0 1 0 134 460 0 0 0 0 0 0 +465 466 136 465 2 17 2 9 5 FFF1 467 468 469 135 466
 2 0 45 34 467 3.54390624692055 -.000376251317020694 3.691195276828275 -.0003042
015066971085 3.863734287166845 -.000167842172871103 3.92530487423626 -.000119182
3120107296 4.009592618937785 -467102547401549e-19 4.03512458706942 -247574279891
4095e-20 4.08177268644575 1583685778644555e-20 4.13134873537303 589791149134281e
-19 4.15402559593503 784594470771364e-19 4.23767570929486 .000150318247342995 4.
297473058175355 .0001962591969839675 4.37343208281689 .0002546167962950685 4.438
4435472584 .000292309835947992 4.51106783062132 .0003344167168816815 4.576759251
17751 .0003547879019023255 4.64596856377882 .000376250000000006 4.71238898038469
 .000376250000000006 127 9 468 3 2 2 2 2 2 2 2 3 128 9 469 0 .25 .375 .4375 .5 .
625 .75 .875 1 14 461 13 0 ?470 194 267 6 459 -0 0 470 194 204 51 462 158 0 471
 472 459 0 +-318826264217659e-33 0 .005207 -612303176911189e-31 0 1 .00635 0 1 0
 51 463 160 0 473 459 474 0 +952357379969178e-32 0 -.1555369 -612303176911189e-3
1 0 1 .009525 0 1 0 141 464 450 475 475 459 137 450 276 0 2 271 278 476 +459 477
 0 ?141 475 451 464 464 459 133 271 275 0 266 442 450 0 +450 .0111125 -940681370
68866e-32 -.292395 .01035999868297928 .004019707150327275 -.288984478052709 0 1
 141 476 271 476 476 450 134 477 0 0 0 0 0 0 +478 479 136 478 2 17 2 9 5 FFF1 48
0 481 482 135 479 2 0 45 34 480 4.71238898038469 .000376250000000006 4.778800466
96716 .000376250000000006 4.84801870959187 .0003547879019023255 4.91369209664521
 .0003344249365640145 4.98633441351097 .0002923098359480145 5.05132768338731 .00
02546293458658605 5.12730490259401 .0001962591969840145 5.18708383316583 .000150
333521973692 5.27075236483433 784594470771763e-19 5.29341684640624 5898989725354
08e-19 5.34300527432361 1583685778648195e-20 5.38963992589398 -2474573465024375e
-20 5.41518534183157 -46710254740122e-18 5.49945450855826 -.0001191667694450772
 5.56104367360252 -.000167842172871096 5.73357468192339 -.000304197592326464 5.8
8087171384884 -.000376251317020706 127 9 481 3 2 2 2 2 2 2 2 3 128 9 482 0 .125
 .25 .375 .5 .5625 .625 .75 1 14 473 84 0 ?196 483 484 6 463 -0 0 196 483 204 51
 474 161 0 485 463 486 0 +1981936599700865e-33 0 -.03236855 -612303176911189e-31
 0 1 .003175 0 1 0 14 485 91 0 ?487 196 488 6 474 -0 0 487 196 204 50 486 162 0
 489 474 490 0 +1904714759938355e-32 .00358775 -.3110738 612303176911189e-31 618
896536617745e-31 -1 -378952315550377e-47 1 618896536617745e-31 14 489 52 0 ?491
 492 493 6 486 +0 0 491 492 204 50 490 163 0 487 486 494 0 +-679644280307882e-33
 .0028321 .0110998 -612303176911189e-31 0 1 0 -1 0 14 487 96 0 ?495 485 496 6 49
0 +0 0 495 485 204 52 494 164 0 421 490 497 0 +1804109521076995e-32 0 -.29464317
5 -612303176911189e-31 0 1 .010556875 .707106781186548 .707106781186547 0 1 0 14
 421 132 0 ?498 412 499 6 494 +0 0 498 412 204 50 497 165 0 498 494 500 0 +18075
11630603705e-32 .008969375 -.2951988 612303176911189e-31 0 -1 0 1 0 14 498 137 0
 ?501 421 502 6 497 +0 0 501 421 204 50 500 166 0 422 497 200 0 +171046402627599
e-31 .0108346875 -.2793492 -612303176911189e-31 191822560835123e-28 1 -117453563
4025856e-45 -1 191822560835123e-28 14 422 121 0 ?412 318 503 6 500 +0 0 412 318
 204 51 200 167 0 470 500 504 505 +.00305475 0 -.287274 1 0 1224606353822376e-31
 .0043685 0 1 0 14 470 21 0 ?506 461 507 6 200 -0 0 506 461 204 51 504 168 0 501
 200 197 0 +1853780320167e-29 0 -.3027553 -612303176911189e-31 0 1 .0079375 0 1
 0 141 505 508 509 509 200 137 508 267 0 2 439 510 511 +200 512 0 ?141 509 8 505
 505 200 133 439 266 0 513 436 508 0 +508 .0103600004521069 .00401970850517858 -
.288984478232365 .0103600004521069 .004019708505178625 -.285563521767635 0 1 133
 510 271 0 206 508 514 0 +514 .01036 .00401970847823571 -.288984478295682 .01036
 -.00401970847823571 -.288984478295682 .402313525488986 2.739279128100805 141 51
1 439 511 511 508 134 512 0 0 0 0 0 0 +515 516 136 515 2 9 2 5 5 FFF1 517 518 51
9 135 516 2 0 45 18 517 5.88087179744226 .00730525045210689 5.98782479227988 .00
723425626785993 6.08426763975983 .00719947227344886 6.18519485944793 .0071630709
0271698 6.28318530717959 .00716307090271698 6.38116489711038 .00716307090271698
 6.48210297459935 .00719947227344884 6.57853347974362 .00723424807515759 6.68549
881691689 .00730525045210687 127 5 518 3 2 2 2 3 128 5 519 0 .25 .5 .75 1 16 206
 18 0 ?268 11 520 510 0 0 2 31 514 272 0 2 510 443 521 +.01036 0 -.287274 -1 0 -
1224606353822376e-31 0 1 0 .0043685 133 443 273 0 234 514 442 0 +442 .0103600029
7818952 .004019700802535515 -.288984475653918 .0111125 -2041265716027675e-33 -.2
92395 0 1 141 521 510 521 521 514 17 234 0 275 273 522 232 266 270 443 269 +15 2
75 127 0 216 412 523 17 522 0 275 234 213 265 513 524 438 0 +16 270 15 0 5e-7 23
4 524 277 0 0 0 2 16 524 23 0 5e-7 522 214 270 0 0 0 2 16 277 20 0 5e-7 273 270
 525 0 0 0 2 16 525 24 0 5e-7 276 277 526 0 0 0 2 17 276 0 275 216 273 209 527 5
25 457 0 +16 526 123 0 ?528 525 529 530 0 0 2 17 528 0 531 528 528 308 312 526 0
 0 +16 529 129 0 ?532 526 533 534 0 0 2 31 530 213 0 526 535 536 0 +171046402627
599e-31 0 -.2793492 612303176911189e-31 0 -1 0 1 0 .0111125 31 535 212 0 369 537
 530 0 +.0047625 0 -.3039364 -1 0 -612303176911189e-31 612303176911189e-31 0 -1
 .003175 30 536 214 0 533 530 538 0 +-.0047625 -583218776007907e-33 -.2951988 12
24606353822376e-31 -1 749830360911069e-47 16 533 43 0 ?539 529 540 536 0 0 2 31
 538 215 0 391 536 330 0 +1900049009730295e-32 0 -.3103118 612303176911189e-31 0
 -1 0 1 0 .0079375 16 391 61 0 ?541 398 366 538 0 0 2 31 330 216 0 381 538 327 0
 +470474779740073e-32 0 -.0768369 612303176911189e-31 0 -1 0 1 0 .003175 16 381
 82 0 ?542 370 362 330 0 0 2 17 542 0 543 542 542 260 262 381 0 0 +16 362 93 0 ?
544 381 356 545 0 0 2 17 544 0 496 544 544 225 287 362 0 0 +31 545 207 0 362 546
 534 0 +-679644280307882e-33 0 .0110998 612303176911189e-31 0 -1 0 1 0 .003175 3
0 546 206 0 540 547 545 0 +.0047625 0 -.2951988 0 1 0 31 534 208 0 529 545 548 0
 +180070741155028e-31 0 -.29408755 612303176911189e-31 0 -1 0 1 0 .0111125 31 54
8 209 0 520 534 549 0 +-.0042505 0 -.287274 -1 0 -1224606353822376e-31 0 1 0 .00
43685 16 520 26 0 ?550 206 386 548 0 0 2 31 549 210 0 386 548 537 0 +-.0047625 0
 -.3039364 1 1224606353822376e-31 612303176911189e-31 612303176911189e-31 0 -1 .
003175 16 386 35 0 ?551 520 349 549 0 0 2 31 537 211 0 397 549 535 0 +1807511630
603705e-32 0 -.2951988 612303176911189e-31 0 -1 0 1 0 .01000125 16 397 134 0 ?55
2 540 352 537 0 0 2 17 552 0 553 552 552 288 290 397 0 0 +16 540 72 0 ?554 533 3
97 546 0 0 2 17 554 0 502 555 556 202 557 540 0 0 +15 502 138 0 555 498 553 17 5
55 0 502 539 554 282 343 341 0 0 -17 556 0 502 554 539 251 335 333 0 0 -18 202 6
7 0 558 231 251 9 ?2 17 557 0 559 560 558 251 554 540 0 556 -15 559 71 0 558 425
 0 17 560 0 559 561 557 254 253 336 0 562 -17 558 0 559 557 250 202 375 345 0 34
3 -17 250 0 559 558 310 231 390 366 0 541 -17 375 0 563 564 343 231 558 345 0 0
 +17 343 0 563 375 365 202 555 341 0 554 +15 563 65 0 365 423 0 17 365 0 563 343
 564 282 281 344 0 555 +17 564 0 563 365 375 240 541 391 0 0 -17 281 0 565 239 3
00 240 365 344 0 402 -15 565 39 0 313 492 0 17 239 0 565 566 281 237 402 398 0 3
85 -17 300 0 565 281 313 282 539 533 0 365 -17 402 0 567 541 568 240 239 398 0 5
64 +15 567 60 0 402 491 0 17 541 0 567 390 402 231 564 391 0 375 +17 568 0 567 4
02 390 237 348 346 0 0 -17 390 0 567 568 541 230 250 366 0 0 +17 348 0 493 377 3
85 230 568 346 0 390 +15 493 53 0 385 489 0 17 377 0 493 569 348 227 310 350 0 5
61 +17 385 0 493 348 569 237 566 349 0 568 +17 569 0 493 385 377 241 229 378 0 0
 +17 566 0 565 285 239 241 385 349 0 569 -17 285 0 565 313 566 283 293 329 0 396
 -17 313 0 565 300 285 301 396 352 0 539 -17 293 0 570 229 339 241 285 329 0 566
 +16 329 51 0 ?293 333 340 327 0 0 2 17 396 0 571 562 335 283 313 352 0 339 +15
 571 142 0 396 501 0 17 562 0 571 253 396 254 339 337 0 0 -17 335 0 571 396 253
 301 556 333 0 0 +17 339 0 570 293 258 283 562 337 0 0 +15 570 145 0 293 572 0 1
7 258 0 570 339 229 254 561 340 0 560 +17 229 0 570 258 293 227 569 378 0 377 -1
7 561 0 559 310 560 227 258 340 0 0 -17 310 0 559 250 561 230 377 350 0 348 -16
 378 58 0 ?569 350 398 547 0 0 2 31 547 205 0 378 0 546 0 +1904714759938355e-32
 0 -.3110738 612303176911189e-31 0 -1 0 1 0 .0071755 14 572 144 0 ?0 501 570 6 4
26 +0 0 0 501 204 14 501 141 0 ?572 498 571 6 504 +0 0 572 498 204 52 426 153 0
 572 414 573 0 +1902381884834325e-32 0 -.3106928 -612303176911189e-31 0 1 .00755
65 .707106781186548 .707106781186547 0 1 0 13 204 3 0 0 0 0 0 0 10 194 14 194 5
 0 ?461 0 211 6 574 -0 0 461 0 204 15 211 6 0 208 194 0 52 574 148 0 194 575 424
 576 +.01073625 0 -.287274 1 0 1224606353822376e-31 .00474475 .707106781186548 .
707106781186548 0 1 0 50 575 147 0 492 577 574 0 +-.0047625 -583218776007907e-33
 -.3110738 -1 -1224606353822378e-31 -612303176911189e-31 612303176911189e-31 0 -
1 51 424 149 0 318 574 413 0 +855232013137995e-32 0 -.1396746 -612303176911189e-
31 0 1 .010556875 0 1 0 141 576 411 578 578 574 137 411 249 0 2 407 207 579 +574
 580 0 ?141 578 581 576 576 574 137 581 260 0 2 215 438 582 +574 583 0 ?133 215
 259 0 208 431 581 0 +581 .0103599986829793 .00401970715032726 -.285563521947291
 .0111125 -823529964924863e-33 -.282153 0 1 133 438 264 0 522 581 436 0 +436 .01
0360000483116 .00401970723310001 -.2855635223140535 .01036000048311602 .00401970
7233099955 -.2889844776859465 0 1 141 582 215 582 582 581 134 583 0 0 0 0 0 0 +5
84 585 136 584 2 17 2 9 5 FFF1 586 587 588 135 585 2 0 45 34 586 .40231359333076
6 -.000376251317020678 .549602622794951 -.0003042015069140525 .722141633577051 -
.000167842172871097 .783712219537711 -.0001191823129346498 .867999965348001 -467
102547401298e-19 .893531932978977 -247574284284936e-19 .940180032855966 15836857
78646555e-20 .98975607960207 589791130192507e-19 1.012432942345254 7845944707718
08e-19 1.09608305332157 .0001503182453711055 1.155880404585568 .0001962591969840
205 1.2318394282866 .0002546167957513495 1.296850893668606 .000292309835948021 1
.369475176684104 .000334416716678557 1.435166597587714 .0003547879019023545 1.50
4375909864685 .0003762499999999815 1.570796326794895 .0003762499999999815 127 9
 587 3 2 2 2 2 2 2 2 3 128 9 588 0 .25 .375 .4375 .5 .625 .75 .875 1 133 207 251
 0 11 411 589 0 +589 .01036 -.00401970847823571 -.285563521704318 .01036 .004019
70847823571 -.285563521704318 3.54390617907878 5.8808717816906 141 579 407 579 5
79 411 134 580 0 0 0 0 0 0 +590 591 136 590 2 17 2 9 5 FFF1 592 593 594 135 591
 2 0 45 34 592 1.570796326794895 .0003762499999999815 1.637207813708445 .0003762
499999999815 1.70642605600208 .0003547879019023545 1.772099444051295 .0003344249
361579115 1.844741759921185 .0002923098359480225 1.909735031425385 .000254629344
7688805 1.985712249004235 .000196259196983998 2.0454911823555 .00015033351971745
4 2.12915971124456 784594470771409e-19 2.151824208068795 589898841156472e-19 2.2
0141262073384 158368577864517e-19 2.24804725991842 -247457239988904e-19 2.273592
688241795 -46710254740128e-18 2.35786185451126 -.0001191667690578186 2.419451020
012765 -.0001678421728711315 2.5919820280923 -.000304197592208387 2.739279060259
04 -.0003762513170206865 127 9 593 3 2 2 2 2 2 2 2 3 128 9 594 0 .125 .25 .375 .
5 .5625 .625 .75 1 31 589 252 0 2 207 433 595 +.01036 0 -.287274 -1 0 -122460635
3822376e-31 0 1 0 .0043685 133 433 257 0 213 589 431 0 +431 .0111125 -2041265716
027675e-33 -.282153 .0103600029781895 .00401970080253554 -.285563524346082 0 1 1
41 595 207 595 595 589 17 213 0 275 522 216 217 208 214 433 205 +16 214 7 0 5e-7
 213 322 524 0 0 0 2 17 205 0 211 208 212 217 596 11 0 513 +17 212 0 211 205 208
 209 216 322 407 596 -17 596 0 507 527 513 209 205 11 0 276 -17 513 0 507 596 27
2 217 522 524 439 0 -15 507 22 0 513 470 597 17 272 0 507 513 527 265 268 206 0
 522 -17 527 0 507 272 596 235 276 525 198 0 -17 268 0 267 269 266 235 272 206 0
 527 +15 267 14 0 266 461 0 133 198 287 0 527 429 8 0 +8 .0103600004521069 -.004
019708505178555 -.285563521767635 .0103600004521069 -.004019708505178605 -.28898
4478232365 0 1 137 429 286 0 2 457 198 598 +409 599 0 ?141 598 457 598 598 429 1
34 599 0 0 0 0 0 0 +600 601 136 600 2 9 2 5 5 FFF1 602 603 604 135 601 2 0 45 18
 602 4.34226777229528 -.00226610268594668 4.325348896983435 -.00185427971180504
 4.316786742292975 -.0014188774654178 4.308376262866225 -.000991188201676635 4.3
0837114511047 -.000555624999999949 4.308366034049645 -.0001206315913976844 4.316
786742292975 .000307627465417903 4.325346993601355 .000742983381511272 4.3422677
7229528 .001154852685946838 127 5 603 3 2 2 2 3 128 5 604 0 .25 .5 .75 1 15 597
 25 0 550 470 0 17 550 0 597 550 550 236 243 520 0 0 +17 243 0 605 243 243 236 5
50 520 0 550 -15 605 29 0 243 506 0 14 506 28 0 ?606 470 605 6 607 -0 0 606 470
 204 14 606 30 0 ?492 506 608 6 609 -0 0 492 506 204 50 607 156 0 506 609 472 0
 +-.0042505 .00218425 -.287274 -1 0 -1224606353822378e-31 0 1 0 51 609 155 0 606
 573 607 0 +18610122329895e-30 0 -.3039364 -1 0 -612303176911189e-31 .003175 612
303176911189e-31 0 -1 52 472 157 0 491 607 462 0 +1902381884834325e-32 0 -.31069
28 -612303176911189e-31 0 1 .0075565 .707106781186548 .707106781186547 0 1 0 14
 491 59 0 ?423 489 567 6 472 +0 0 423 489 204 14 423 64 0 ?425 491 563 6 413 +0
 0 425 491 204 14 425 69 0 ?483 423 610 6 414 +0 0 483 423 204 14 483 77 0 ?473
 425 611 6 573 -0 0 473 425 204 15 610 70 0 612 425 559 17 612 0 610 612 612 244
 256 369 0 0 +17 256 0 608 256 256 244 612 369 0 612 -16 369 32 0 ?612 345 367 5
35 0 0 2 15 608 31 0 256 606 613 15 613 34 0 614 606 0 17 614 0 613 614 614 220
 551 386 0 551 -18 220 36 0 614 244 301 218 ?2 17 551 0 615 551 551 220 614 386
 0 0 +15 615 38 0 551 492 565 14 492 37 0 ?489 606 615 6 575 +0 0 489 606 204 15
 611 78 0 368 483 616 50 573 154 0 483 426 609 0 +470474779740073e-32 .00635 -.0
768369 -612303176911189e-31 0 1 0 -1 0 17 368 0 611 368 368 259 295 367 0 0 +15
 616 81 0 262 483 0 17 262 0 616 262 262 260 542 381 0 542 -17 295 0 617 295 295
 259 368 367 0 368 -15 617 88 0 295 473 0 14 318 116 0 ?422 618 315 6 424 +0 0 4
22 618 204 14 618 111 0 ?318 471 619 6 197 +0 0 318 471 204 14 471 106 0 ?618 49
5 620 6 462 +0 0 618 495 204 15 619 112 0 297 618 621 50 197 169 0 618 504 7 0 +
-3480540595496615e-48 .0084534375 56843418860808e-30 -612303176911189e-31 135120
2944247404e-29 1 -827345855414438e-45 -1 1351202944247404e-29 17 297 0 619 297 2
97 248 324 321 0 324 -15 621 115 0 373 618 0 17 373 0 621 373 373 245 247 325 0
 0 +17 247 0 620 247 247 245 373 325 0 373 -15 620 107 0 247 471 622 15 622 110
 0 383 471 0 17 383 0 622 383 383 226 305 363 0 0 +17 305 0 623 305 305 226 383
 363 0 383 -15 623 102 0 305 495 624 14 495 101 0 ?471 487 623 6 577 +0 0 471 48
7 204 15 624 105 0 361 495 0 17 361 0 624 361 361 222 224 356 0 0 +17 224 0 625
 224 224 222 361 356 0 361 -15 625 98 0 224 487 0 52 577 146 0 495 0 575 0 +-658
648404371598e-33 0 .0107569 612303176911189e-31 0 -1 .0060071 .707106781186562 .
707106781186533 0 1 0 17 324 0 319 324 324 248 297 321 0 0 +15 319 120 0 324 318
 0 17 253 0 571 335 562 251 560 336 0 557 +17 539 0 502 556 555 301 300 533 0 33
5 +15 553 140 0 552 498 0 17 290 0 499 290 290 288 552 397 0 552 -15 499 133 0 2
90 421 626 15 626 136 0 532 421 0 17 532 0 626 532 532 291 307 529 0 0 +17 307 0
 523 307 307 291 532 529 0 532 -15 523 128 0 307 412 531 15 531 131 0 528 412 0
 15 496 97 0 544 487 625 17 287 0 488 287 287 225 544 362 0 544 -15 488 92 0 287
 485 543 15 543 95 0 542 485 0 17 312 0 503 312 312 308 528 526 0 528 -15 503 12
2 0 312 422 320 15 320 125 0 316 422 0 14 196 89 0 ?485 473 627 6 7 -0 0 485 473
 204 15 627 90 0 303 196 0 17 303 0 627 303 303 263 380 370 0 380 -17 380 0 484
 380 380 263 303 370 0 0 +15 484 85 0 380 473 617 141 444 443 444 444 442 134 44
5 0 0 0 0 0 0 +628 629 136 628 2 13 2 7 5 FFF1 630 631 632 135 629 2 0 45 26 630
 5.08250956776335 -.002266100653917915 5.06223943160324 -.002968092241633165 5.0
2659599404145 -.003580910179801165 4.99122657163007 -.00418901697305765 4.944416
34688691 -.00464630142286365 4.91969070012189 -.00488784381748103 4.892600622269
68 -.00507737352128424 4.86484759864584 -.00527154137771366 4.83532455878138 -.0
0540483115038515 4.79533451477144 -.00558537705282876 4.75379605370632 -.0056462
433654183 4.73306198437512 -.005676625 4.71238898038469 -.005676625 127 7 631 3
 2 2 2 2 2 3 128 7 632 0 .25 .5 .625 .75 .916666666666667 1 141 440 438 440 440
 436 134 441 0 0 0 0 0 0 +633 634 136 633 2 9 2 5 5 FFF1 635 636 637 135 634 2 0
 45 18 635 5.0825101884741 .001154852685946672 5.09942906378595 .000743029711805
093 5.10799121847641 .0003076274654178475 5.11640169790278 -.0001200617983041586
 5.11640681565891 -555625e-9 5.11641192672012 -.000990618409282398 5.10799121847
64 -.001418877465417856 5.09943096714121 -.00185423338216388 5.0825101884741 -.0
02266102685946735 127 5 636 3 2 2 2 3 128 5 637 0 .25 .5 .75 1 141 434 433 434 4
34 431 134 435 0 0 0 0 0 0 +638 639 136 638 2 13 2 7 5 FFF1 640 641 642 135 639
 2 0 45 26 640 4.71238898038469 .00456537499999993 4.73305777558816 .00456537499
999993 4.75379605370632 .00453499336541829 4.79532628623101 .004474151460344685
 4.83532455878138 .00429358115038514 4.86483988646325 .004160335599308895 4.8926
0062226969 .003966123521284225 4.91968363393857 .00377665275177527 4.94441634688
692 .003535051422863645 4.991220828445 .003077842180712605 5.02659599404146 .002
469660179801105 5.06223807184538 .00185688933251493 5.08250956776335 .0011548506
53918014 127 7 641 3 2 2 2 2 2 3 128 7 642 0 .0833333333333333 .25 .375 .5 .75 1
 136 331 2 3 4 2 5 FFT1 643 644 645 135 332 2 0 45 12 643 -.0047625 -.00635 -.31
03118 1 -.00477260300441578 -.0058461775386948 -.3113839193334755 1.002121365756
598 -.0047625 -.00536715883871528 -.3110738 1 127 2 644 3 3 128 2 645 0 1.243673
016147534 19 195 1 0 2 0 10 6 S141 199 198 199 199 8 134 201 0 0 0 0 0 0 +646 64
7 136 646 2 9 2 5 5 FFF1 648 649 650 135 647 2 0 45 18 648 2.73927914385245 .007
30525045210689 2.846232138559915 .00723425626794631 2.94267498617002 .0071994722
7344885 3.043596610846235 .00716307292062589 3.14159265358978 .00716307090271698
 3.23956664935893 .00716306888526205 3.34051032100954 .00719947227344885 3.43694
0826243465 .00723424807521709 3.543906163327105 .00730525045210688 127 5 649 3 2
 2 2 3 128 5 650 0 .25 .5 .75 1 74 20 193 1 0 4 0 0 0 0 0 0 0 0 0 0 0 0 0 0 0 0
 0 0 0 84 10 192 usr-12-6_11 0 
